<?xml version="1.0" encoding="utf-8" ?>
<svg baseProfile="full" height="199" version="1.1" width="289" xmlns="http://www.w3.org/2000/svg" xmlns:ev="http://www.w3.org/2001/xml-events" xmlns:xlink="http://www.w3.org/1999/xlink"><defs /><path d="M 20.0,179.0 L 21.94460641399417,178.77759266972097 L 23.8600583090379,178.51853394418993 L 25.746355685131196,178.22282382340694 L 27.603498542274053,177.89046230737193 L 29.431486880466473,177.52144939608496 L 31.230320699708457,177.115785089546 L 33.0,176.67346938775512 L 34.74052478134111,176.19450229071222 L 36.45189504373178,175.67888379841733 L 38.134110787172006,175.12661391087047 L 39.7871720116618,174.53769262807162 L 41.411078717201164,173.91211995002078 L 43.005830903790084,173.249895876718 L 44.57142857142857,172.55102040816328 L 46.10787172011662,171.81549354435654 L 47.61516034985423,171.0433152852978 L 49.0932944606414,170.23448563098714 L 50.542274052478135,169.38900458142442 L 51.96209912536443,168.50687213660973 L 53.35276967930029,167.5880882965431 L 54.71428571428571,166.63265306122446 L 56.046647230320694,165.6405664306539 L 57.349854227405245,164.61182840483133 L 58.623906705539355,163.54643898375676 L 59.86880466472303,162.44439816743022 L 61.08454810495626,161.30570595585172 L 62.27113702623906,160.13036234902125 L 63.42857142857142,158.9183673469388 L 64.55685131195335,157.6697209496043 L 65.65597667638484,156.38442315701792 L 66.72594752186589,155.0624739691795 L 67.7667638483965,153.70387338608913 L 68.77842565597668,152.30862140774678 L 69.76093294460641,150.87671803415245 L 70.71428571428571,149.40816326530614 L 71.63848396501457,147.90295710120782 L 72.533527696793,146.36109954185756 L 73.399416909621,144.78259058725533 L 74.23615160349854,143.1674302374011 L 75.04373177842565,141.5156184922949 L 75.82215743440233,139.8271553519367 L 76.57142857142858,138.10204081632654 L 77.29154518950438,136.3402748854644 L 77.98250728862973,134.54185755935026 L 78.64431486880466,132.7067888379842 L 79.27696793002916,130.8350687213661 L 79.88046647230321,128.92669720949607 L 80.45481049562682,126.981674302374 L 81.0,125.0" fill="none" stroke="blue" stroke-width="2" /><path d="M 65.0,58.0 L 65.74385672636402,56.464806330695545 L 66.50603915035401,54.9612661391087 L 67.28654727197002,53.489379425239484 L 68.085381091212,52.04914618908788 L 68.90254060807996,50.64056643065389 L 69.73802582257393,49.26364014993752 L 70.59183673469389,47.91836734693878 L 71.46397334443982,46.60474802165764 L 72.35443565181174,45.32278217409413 L 73.26322365680966,44.07246980424823 L 74.19033735943356,42.853810912119954 L 75.13577675968347,41.666805497709284 L 76.09954185755934,40.51145356101624 L 77.08163265306123,39.38775510204081 L 78.08204914618909,38.29571012078301 L 79.10079133694295,37.23531861724282 L 80.13785922532279,36.20658059142025 L 81.1932528113286,35.20949604331528 L 82.26697209496044,34.244064972927944 L 83.35901707621824,33.310287380258224 L 84.46938775510203,32.40816326530612 L 85.59808413161183,31.53769262807164 L 86.7451062057476,30.698875468554768 L 87.91045397750938,29.89171178675552 L 89.09412744689712,29.116201582673888 L 90.29612661391087,28.372344856309873 L 91.5164514785506,27.660141607663476 L 92.75510204081633,26.979591836734695 L 94.01207830070804,26.330695543523532 L 95.28738025822574,25.713452728029992 L 96.58100791336942,25.127863390254063 L 97.89296126613911,24.573927530195753 L 99.22324031653477,24.051645147855062 L 100.57184506455644,23.561016243231986 L 101.93877551020408,23.102040816326532 L 103.3240316534777,22.674718867138694 L 104.72761349437734,22.279050395668474 L 106.14952103290295,21.91503540191587 L 107.58975426905457,21.582673885880883 L 109.04831320283215,21.281965847563516 L 110.52519783423573,21.012911286963767 L 112.0204081632653,20.775510204081634 L 113.53394418992086,20.56976259891712 L 115.0658059142024,20.395668471470223 L 116.61599333610995,20.253227821740943 L 118.18450645564347,20.14244064972928 L 119.77134527280299,20.063306955435234 L 121.3765097875885,20.01582673885881 L 123.0,20.0" fill="none" stroke="blue" stroke-width="2" /><path d="M 269.0,50.0 L 267.62224073302787,50.622657226155766 L 266.26447313619326,51.26613910870471 L 264.92669720949607,51.93044564764682 L 263.6089129529363,52.61557684298209 L 262.31112036651393,53.32153269471054 L 261.03331945022904,54.048313202832155 L 259.7755102040817,54.79591836734694 L 258.5376926280716,55.5643481882549 L 257.3198667221991,56.35360266555602 L 256.122032486464,57.16368179925031 L 254.9441899208663,57.99458558933777 L 253.78633902540605,58.84631403581841 L 252.6484798000833,59.71886713869221 L 251.53061224489795,60.61224489795919 L 250.43273635985008,61.52644731361933 L 249.35485214493963,62.46147438567264 L 248.29695960016662,63.41732611411912 L 247.25905872553105,64.39400249895877 L 246.2411495210329,65.3915035401916 L 245.24323198667219,66.40982923781758 L 244.26530612244895,67.44897959183673 L 243.30737192836318,68.50895460224906 L 242.3694294044148,69.58975426905457 L 241.45147855060395,70.69137859225323 L 240.55351936693043,71.81382757184507 L 239.67555185339444,72.95710120783006 L 238.81757600999583,74.12119950020823 L 237.9795918367347,75.3061224489796 L 237.16159933361098,76.51187005414411 L 236.36359850062473,77.73844231570179 L 235.58558933777596,78.98583923365264 L 234.82757184506454,80.25406080799667 L 234.08954602249065,81.54310703873387 L 233.37151187005415,82.85297792586422 L 232.67346938775512,84.18367346938776 L 231.9954185755935,85.53519366930445 L 231.33735943356936,86.90753852561433 L 230.69929196168263,88.30070803831737 L 230.08121615993338,89.71470220741357 L 229.48313202832156,91.14952103290295 L 228.90503956684717,92.6051645147855 L 228.34693877551018,94.08163265306123 L 227.8088296543107,95.57892544773011 L 227.29071220324863,97.09704289879215 L 226.792586422324,98.6359850062474 L 226.31445231153685,100.1957517700958 L 225.85630987088715,101.77634319033736 L 225.41815910037485,103.37775926697209 L 225.0,105.0" fill="none" stroke="blue" stroke-width="2" /><line stroke="green" stroke-width="2" x1="81" x2="65" y1="125" y2="58" /><line stroke="green" stroke-width="2" x1="123" x2="269" y1="20" y2="50" /><circle cx="20" cy="179" fill="black" r="3" /><text fill="gray" font-size="10px" x="25" y="174">0</text><circle cx="68" cy="174" fill="black" r="3" /><text fill="gray" font-size="10px" x="73" y="169">1</text><circle cx="81" cy="125" fill="red" r="3" /><text fill="gray" font-size="10px" x="86" y="120">2</text><circle cx="65" cy="58" fill="red" r="3" /><text fill="gray" font-size="10px" x="70" y="53">3</text><circle cx="83" cy="20" fill="black" r="3" /><text fill="gray" font-size="10px" x="88" y="15">4</text><circle cx="123" cy="20" fill="red" r="3" /><text fill="gray" font-size="10px" x="128" y="15">5</text><circle cx="269" cy="50" fill="red" r="3" /><text fill="gray" font-size="10px" x="274" y="45">6</text><circle cx="235" cy="65" fill="black" r="3" /><text fill="gray" font-size="10px" x="240" y="60">7</text><circle cx="225" cy="105" fill="black" r="3" /><text fill="gray" font-size="10px" x="230" y="100">8</text></svg>